<svg xmlns="http://www.w3.org/2000/svg" width="494.844" height="494.843"><path d="M479.884 146.21c-.518 0-1.005.104-1.513.157-.503-.043-.949-.162-1.482-.157-19.972.208-39.934.66-59.9 1.196-.198-27.86-2.128-55.457-6.484-82.995-1.311-8.302-7.551-11.433-13.908-10.758a15.827 15.827 0 0 0-3.515-.223c-103.21 4.372-206.49 5.928-309.784 5.984-9.442.005-14.231 7.175-14.434 14.497a16.881 16.881 0 0 0-.531 3.463c-1.3 27.414-2.569 54.827-3.859 82.235-16.671.16-33.342.218-50.018.074-12.208-.104-16.663 11.804-13.441 20.632-.01.604-.081 1.17-.025 1.815 5.66 67.735 7.397 171.498 7.48 239.447.005 4.296 1.539 7.576 3.849 9.963 2.199 4.356 6.386 7.714 12.614 8.003 149.272 6.886 298.255-7.14 447.466-8.983 1.406-.015 2.687-.233 3.895-.543 7.252-.274 14.224-5.048 14.066-14.421-1.158-67.73 2.604-171.313 2.955-239.036.955-1.958 1.528-4.108 1.528-6.398v-8.978c.006-8.166-6.798-14.974-14.959-14.974zM97.711 89.279c95.174-.183 190.338-1.706 285.443-5.565 2.731 21.424 3.813 42.957 3.935 64.577-97.562 3.24-195.062 9.054-292.653 10.895 1.096-23.307 2.178-46.607 3.275-69.907zm362.593 311.549c-140.701 2.326-281.206 14.615-421.949 9.283-.249-61.606-2.029-159.032-6.901-220.45 144.083.281 287.891-11.2 431.938-13.314-.316 62.864-3.53 161.606-3.088 224.481z"/><path d="M152.652 226.346c-20.16-8.196-47.334-4.113-65.956 5.969-20.065 10.867-29.081 34.638-34.411 55.376-1.348 5.22-.015 9.562 2.63 12.766-.059 20.891 8.955 41.121 29.176 55.248 35.782 24.994 88.872-.68 104.164-37.394 15.116-36.277 1.327-76.952-35.603-91.965zm-16.207 26.734l.086.015a2832.9 2832.9 0 0 0-7.851 12.437c-5.433-3.667-10.879-7.312-16.27-11.02 6.715-2.143 14.623-2.743 24.035-1.432zm-43.85 72.087c-2.43-2.661-4.276-5.738-5.548-9.11a381.596 381.596 0 0 1 8.45 4.134c-.963 1.664-1.945 3.314-2.902 4.976zm-1.752-33.658a12.917 12.917 0 0 0-4.786-1.076c1.76-7.729 5.114-15.011 9.387-20.729.853 1.889 2.204 3.646 4.268 5.067 5.413 3.728 10.885 7.368 16.333 11.04-2.809 4.56-5.568 9.15-8.341 13.73-5.537-2.822-11.139-5.528-16.861-8.032zm20.512 42.787c.779-1.361 1.582-2.712 2.371-4.062a261.006 261.006 0 0 1 7.17 4.408 45.126 45.126 0 0 1-9.541-.346zm36.155-10.216c-.421-.386-.807-.787-1.3-1.138-6.604-4.743-13.416-9.1-20.332-13.259 2.465-4.077 4.923-8.16 7.421-12.218 7.965 5.327 15.937 10.654 23.841 16.072-2.637 4.002-5.902 7.546-9.63 10.543zm-1.586-46.906c3.042-4.84 6.093-9.674 9.158-14.508 6.312 6.957 9.295 16.757 9.156 26.832-6.084-4.138-12.206-8.226-18.314-12.324zm258.146-50.828c-20.165-8.196-47.332-4.113-65.953 5.969-20.073 10.867-29.081 34.638-34.413 55.376-1.341 5.22-.011 9.562 2.635 12.766-.056 20.891 8.958 41.121 29.179 55.248 35.779 24.994 88.869-.68 104.164-37.394 15.107-36.277 1.32-76.952-35.612-91.965zm1.534 35.411c3.9 3.945 6.683 8.887 8.303 14.365-4.047-1.803-8.069-3.656-12.091-5.499 1.269-2.955 2.534-5.905 3.788-8.866zm-18.677-8.769c-1.285 3.037-2.595 6.062-3.899 9.1-5.876-2.696-11.751-5.403-17.656-8.023 6.143-1.696 13.268-2.123 21.555-1.077zm-35.135 77.977c-10.384-5.19-15.046-15.122-15.65-26.065 7.795 3.209 15.59 6.413 23.385 9.633a3060.383 3060.383 0 0 1-7.735 16.432zm-11.309-49.987c1.452-3.535 3.301-6.724 5.307-9.674.295.152.533.33.848.472 9.009 3.905 17.926 7.998 26.838 12.106-1.341 3.006-2.661 6.022-4.022 9.023-9.659-3.976-19.317-7.951-28.971-11.927zm32.52 53.567c1.895-4.042 3.788-8.079 5.667-12.132 4.732 1.95 9.46 3.895 14.193 5.845a48.485 48.485 0 0 1-19.86 6.287zm37.344-24.008c-1.016-.894-2.184-1.691-3.601-2.28-6.063-2.493-12.126-4.986-18.189-7.485 1.234-2.752 2.442-5.514 3.672-8.267 5.732 2.615 11.481 5.2 17.26 7.708 1.538.671 3.047.965 4.515 1.041-.88 3.265-2.073 6.388-3.657 9.283zm-113.554 12.105c-2.361-2.097-5.642-3.301-9.963-2.833-24.481 2.661-49.025 2.96-73.621 2.98-8.787-3.163-20.665 1.32-20.659 13.478 0 14.497.152 28.954 1.498 43.396.759 8.115 6.236 14.965 14.965 14.965.256 0 .51-.065.764-.081.729.051 1.438.127 2.232.081 25.428-1.579 50.843-2.895 76.325-2.99 7.774-.036 12.354-4.926 13.873-10.726a15.362 15.362 0 0 0 1.092-5.737v-40.411c-.006-5.79-2.728-9.811-6.506-12.122zm-23.43 39.289c-16.813.355-33.599 1.192-50.389 2.157-.16-3.798-.279-7.606-.348-11.41 16.935-.111 33.852-.497 50.737-1.787v11.04zm-67.344-131.919c26.924-1.384 53.862-1.493 80.812-1.498 19.301 0 19.301-29.93 0-29.93-26.949.005-53.888.114-80.812 1.498-19.203.989-19.296 30.923 0 29.93z"/></svg>