<svg xmlns="http://www.w3.org/2000/svg" width="490.985" height="490.985"><path d="M360.601 207.004c.289-6.129.538-12.256.903-18.385.203-3.641-.929-6.419-2.752-8.43-6.642-16.724-25.801-27.061-41.711-33.174-36.957-14.218-78.317-16.075-117.476-15.143-1.711.041-3.204.394-4.573.889-33.101-1.072-67.836.274-98.833 12.106-17.813 6.799-38.204 20.705-36.473 42.34.282 3.507 1.13 6.762 2.346 9.818 4.882 77.008-.218 154.04-1.696 231.094-.8 2.229-.815 4.885.406 7.886 30.592 74.809 240.318 68.208 293.215 10.694 2.072-2.26 3.134-4.723 3.402-7.159 1.777-2.006 2.92-4.697 2.864-8.182-.386-23.912-.833-47.829-1.178-71.741 40.329-7.744 73.107-36.562 72.341-79.815-.704-40.72-34.509-65.371-70.785-72.798zM90.478 179.665c5.621-5.893 14.568-8.742 22.076-11.164 54.438-17.55 127.033-14.617 181.932.165 12.101 3.263 34.692 10.39 38.821 22.678.624 1.886.386 2.605-3.002 6.157-5.626 5.891-14.578 8.739-22.078 11.164-.686.219-1.396.399-2.077.612-61.124-35.919-133.808-39.405-198.057-8.958a13.08 13.08 0 0 0-2.039 1.227c-8.559-3.842-16.331-9.011-18.588-15.724-.624-1.89-.38-2.606 3.012-6.157zm178.577 37.907c-41.568 6.142-87.087 3.453-127.016-5.284 41.899-13.65 86.468-11.319 127.016 5.284zM85.709 430.192c0-.041.01-.071.01-.107 1.257-68.923 5.548-137.831 3.087-206.722 4.987 2.689 10.105 4.936 14.93 6.792 36.96 14.216 78.325 16.071 117.481 15.143 1.708-.041 3.196-.396 4.57-.889 33.101 1.071 67.83-.271 98.826-12.106a91.284 91.284 0 0 0 9.724-4.375c-2.26 67.316-.645 134.665.452 202.01-38.455 40.385-226.185 54.399-249.08.254zm273.048-96.573c-.319-33.759-.188-67.517.858-101.265 23.719 5.492 44.026 21.14 46.367 47.449 2.626 29.588-21.804 47.092-47.225 53.816zM166.729 77.846c.2.165.409.267.612.416 6.548 9.344 7.18 17.908-2.979 25.474-5.228 3.89-7.874 10.275-4.291 16.379 3.021 5.159 11.133 8.201 16.374 4.296 20.291-15.112 26.583-38.285 10.681-59.48-.317-.422-.665-.792-1.008-1.176-.63-.982-1.389-1.944-2.46-2.844-16.229-13.594-14.726-26.223 0-40.535 11.09-10.773-5.855-27.693-16.93-16.93-23.452 22.798-26.176 52.478.001 74.4zm86.193 0c.203.165.416.267.614.416 6.546 9.344 7.186 17.908-2.978 25.474-5.22 3.89-7.871 10.275-4.289 16.379 3.021 5.159 11.131 8.201 16.371 4.296 20.292-15.112 26.584-38.285 10.689-59.48-.325-.422-.675-.792-1.016-1.176-.629-.982-1.391-1.944-2.457-2.844-16.225-13.594-14.727-26.223 0-40.535 11.09-10.773-5.86-27.693-16.936-16.93-23.44 22.798-26.17 52.478.002 74.4z"/></svg>