<svg xmlns="http://www.w3.org/2000/svg" width="465.721" height="465.721"><path d="M78.088 437.208c-1.707 7.581 2.516 17.311 12.657 18.321 95.715 9.496 192.364 19.2 286.732-5.032 6.444-1.655 9.405-6.449 9.685-11.527 27.375-136.77 14.482-274.982.33-412.083-.041-.411-.163-.767-.233-1.158.102-5.408-2.804-10.572-9.781-11.999C283.774-5.439 178.264-4.403 84.844 16c-7.427 1.625-10.266 7.455-9.735 13.254C54.6 164.313 61.61 302.088 78.088 437.208zm22.774-396.686c82.893-16.909 177.412-17.91 260.559-2.158 13.594 128.747 24.882 259.338.437 387.77-84.727 19.86-171.537 11.994-257.38 3.469-15.361-128.637-22.569-260.496-3.616-389.081z"/><path d="M122.317 372.373c2.544 3.57 6.5 5.759 11.148 6.181l.64.056c35.36 3.209 71.919 6.525 107.927 6.525 35.449 0 66.537-3.256 95.034-9.948 6.149-1.442 10.248-5.916 10.786-11.725 18.981-87.113 10.78-194.243.248-287.586a10.985 10.985 0 0 0-.137-.787c-.203-6.21-4.499-10.958-11.126-12.203-31.687-5.926-65.222-8.932-99.686-8.932-37.351 0-73.818 3.499-108.397 10.41-8.043 1.61-11.304 7.744-11.06 13.375-17.748 107.617-4.588 233.525 2.059 283.655-.618 3.788.309 7.82 2.564 10.979zM145.63 89.717c28.894-5.144 60.499-7.86 91.66-7.86 28.604 0 56.361 2.188 82.563 6.489 8.389 73.636 17.082 178.725.614 261.709-23.872 4.85-49.8 7.206-79.12 7.206-30.044 0-60.062-2.407-93.112-5.383-6.272-49.469-17.598-164.638-2.605-262.161zm88.403 307.031c-19.886 0-19.886 30.833 0 30.833 19.883 0 19.883-30.833 0-30.833z"/></svg>