<svg xmlns="http://www.w3.org/2000/svg" width="488.247" height="488.246"><path d="M12.595 382.023c.051.473.181.884.274 1.326-.516 4.728 1.736 9.582 7.744 11.029 147.654 35.515 300.309 24.287 450.749 27.7 1.771.04 3.315-.27 4.641-.843 4.235-1.128 7.882-4.469 8.104-10.08 2.778-68.562 6.068-153.508 2.732-222.111-.056-1.117-.284-2.115-.589-3.062-.772-4.768-4.225-9.214-10.339-9.681-70.98-5.428-141.965-17.405-213.001-26.063 4.54-12.39 12.938-22.099 25.237-28.208.595-.083 1.184-.208 1.763-.444 19.072-7.693 32.331-21.678 35.865-42.36 2.239-13.116-17.809-18.73-20.058-5.53-2.234 13.093-8.734 22.75-21.338 27.835-.848.345-1.64.782-2.396 1.259a10.95 10.95 0 0 0-3.986 1.092c-17.977 8.772-30.605 24.917-36.138 43.886-77.889-8.668-155.855-12.167-233.988 2.524-7.949 1.495-9.363 9.062-6.53 14.757.462 3.224.919 6.441 1.381 9.666a11.826 11.826 0 0 0-.14 2.496c3.361 62.83 3.191 142.201 10.013 204.812zm12.743-186.607c.054-8.757.6-17.476 1.229-26.203 146.223-23.702 293.03 15.554 438.743 28.053 2.549 62.165-.046 140.686-2.59 202.81-143.144-2.712-288.389 7.135-428.957-25.151-5.449-54.061-6.073-124.771-8.476-179.021.011-.171.051-.316.051-.488z"/><path d="M49.749 233.26c15.069 4.763 19.941 6.619 35.67 4.94 2.61-.282 4.73-1.285 6.371-2.719 4.205-1.166 7.851-4.489 8.193-10.026.912-14.553 1.751-18.182 1.82-32.768.01-2.45-.67-4.446-1.752-6.043-1.15-4.154-4.489-7.612-10.083-7.612h-37.32c-4.834 0-7.97 2.595-9.483 5.974-.792 1.394-1.325 3.026-1.437 4.951-.815 13.949-.909 16.98-.909 30.948 0 2.876.937 5.134 2.387 6.833 1.149 2.434 3.265 4.488 6.543 5.522zm13.403-32.38h16.605c-.218 8.95-.609 6.964-1.135 15.901-9.104.333-7.066-.571-15.912-2.704.025-8.043.178-5.161.442-13.197zm57.594 37.841c15.069 4.766 19.941 6.619 35.67 4.938 2.61-.279 4.732-1.282 6.37-2.719 4.207-1.163 7.851-4.487 8.196-10.024.909-14.556 1.752-18.185 1.818-32.771.013-2.448-.67-4.446-1.752-6.041-1.147-4.156-4.486-7.615-10.082-7.615h-37.318c-4.836 0-7.972 2.595-9.485 5.975-.79 1.394-1.325 3.026-1.435 4.951-.817 13.951-.912 16.983-.912 30.95 0 2.874.937 5.131 2.389 6.832 1.148 2.439 3.266 4.488 6.541 5.524zm13.406-32.38h16.603c-.218 8.95-.609 6.962-1.135 15.902-9.105.333-7.066-.574-15.909-2.704.03-8.046.174-5.16.441-13.198zm57.592 37.841c15.069 4.764 19.941 6.617 35.673 4.941 2.61-.284 4.73-1.285 6.368-2.722 4.207-1.163 7.853-4.489 8.195-10.026.909-14.554 1.752-18.185 1.821-32.769.01-2.45-.67-4.445-1.752-6.043-1.15-4.153-4.489-7.611-10.083-7.611h-37.32c-4.837 0-7.973 2.595-9.483 5.974-.792 1.395-1.328 3.027-1.437 4.949-.815 13.952-.909 16.983-.909 30.951 0 2.876.937 5.134 2.387 6.832 1.155 2.439 3.27 4.488 6.54 5.524zm13.411-32.382h16.603c-.219 8.95-.607 6.965-1.132 15.902-9.105.333-7.066-.571-15.912-2.704.024-8.044.177-5.157.441-13.198zm57.595 37.846c15.066 4.763 19.941 6.621 35.667 4.94 2.61-.279 4.733-1.284 6.373-2.722 4.205-1.163 7.851-4.484 8.19-10.024.914-14.556 1.758-18.184 1.823-32.771.011-2.447-.67-4.445-1.752-6.043-1.152-4.153-4.488-7.611-10.085-7.611h-37.317c-4.835 0-7.973 2.595-9.485 5.974a11.208 11.208 0 0 0-1.433 4.951c-.817 13.952-.914 16.983-.914 30.95 0 2.875.939 5.132 2.387 6.835 1.152 2.434 3.264 4.485 6.546 5.521zm13.4-32.379h16.605c-.219 8.947-.609 6.962-1.133 15.899-9.104.335-7.068-.571-15.914-2.702.031-8.046.178-5.164.442-13.197zm57.595 37.837c15.071 4.764 19.94 6.622 35.673 4.941 2.609-.279 4.732-1.285 6.367-2.717 4.21-1.168 7.855-4.489 8.196-10.029.909-14.553 1.752-18.184 1.823-32.771.01-2.447-.676-4.443-1.758-6.04-1.147-4.156-4.483-7.615-10.079-7.615h-37.318c-4.839 0-7.973 2.595-9.485 5.977-.793 1.391-1.326 3.026-1.438 4.948-.812 13.952-.909 16.983-.909 30.95 0 2.879.935 5.134 2.387 6.835 1.153 2.439 3.265 4.491 6.541 5.521zm13.411-32.379h16.604c-.219 8.95-.609 6.962-1.132 15.902-9.105.333-7.069-.571-15.915-2.704.026-8.044.173-5.159.443-13.198zM49.749 298.801c15.069 4.764 19.941 6.622 35.67 4.941 2.61-.285 4.73-1.285 6.371-2.723 4.205-1.162 7.851-4.483 8.193-10.023.912-14.554 1.751-18.185 1.82-32.769.01-2.452-.67-4.448-1.752-6.042-1.15-4.154-4.489-7.612-10.083-7.612h-37.32c-4.834 0-7.97 2.595-9.483 5.972-.792 1.396-1.325 3.026-1.437 4.951-.815 13.949-.909 16.98-.909 30.95 0 2.874.937 5.134 2.387 6.83 1.149 2.438 3.265 4.489 6.543 5.525zm13.403-32.377h16.605c-.218 8.947-.609 6.962-1.135 15.899-9.104.329-7.066-.574-15.912-2.707.025-8.044.178-5.159.442-13.192zm-3.603 55.126c-.79 1.392-1.325 3.032-1.435 4.951-.817 13.949-.912 16.981-.912 30.95 0 2.874.937 5.129 2.387 6.83 1.155 2.433 3.273 4.489 6.543 5.525 15.069 4.763 19.941 6.616 35.67 4.94 2.61-.284 4.733-1.284 6.371-2.722 4.207-1.163 7.85-4.489 8.193-10.024.912-14.559 1.754-18.184 1.821-32.772.01-2.448-.67-4.443-1.752-6.038-1.148-4.159-4.486-7.617-10.083-7.617H69.035c-4.837 0-7.973 2.59-9.486 5.977zm19.99 15.869h16.602c-.218 8.952-.609 6.962-1.135 15.904-9.105.33-7.066-.574-15.912-2.707.028-8.043.178-5.159.445-13.197zm41.207-33.159c15.069 4.763 19.941 6.621 35.67 4.94 2.61-.279 4.732-1.284 6.37-2.722 4.207-1.162 7.851-4.483 8.196-10.023.909-14.554 1.752-18.185 1.818-32.769.013-2.447-.67-4.448-1.752-6.043-1.147-4.153-4.486-7.611-10.082-7.611h-37.318c-4.836 0-7.972 2.595-9.485 5.972-.79 1.396-1.325 3.031-1.435 4.951-.817 13.954-.912 16.985-.912 30.95 0 2.874.937 5.134 2.389 6.835 1.148 2.438 3.266 4.484 6.541 5.52zm13.406-32.377h16.603c-.218 8.947-.609 6.962-1.135 15.898-9.105.336-7.066-.573-15.909-2.701.03-8.043.174-5.159.441-13.197zm57.592 37.836c15.069 4.763 19.941 6.621 35.673 4.94 2.61-.279 4.73-1.284 6.368-2.717 4.207-1.168 7.853-4.488 8.195-10.028.909-14.554 1.752-18.185 1.821-32.769.01-2.447-.67-4.443-1.752-6.043-1.15-4.153-4.489-7.611-10.083-7.611h-37.32c-4.837 0-7.973 2.595-9.483 5.977-.792 1.392-1.328 3.031-1.437 4.951-.815 13.949-.909 16.98-.909 30.944 0 2.88.937 5.135 2.387 6.836 1.155 2.438 3.27 4.489 6.54 5.52zm13.411-32.377h16.603c-.219 8.947-.607 6.961-1.132 15.898-9.105.335-7.066-.568-15.912-2.701.024-8.044.177-5.159.441-13.197zm57.595 37.846c15.066 4.764 19.941 6.616 35.667 4.936 2.61-.279 4.733-1.284 6.373-2.717 4.205-1.168 7.851-4.488 8.19-10.023.914-14.559 1.758-18.185 1.823-32.773.011-2.447-.67-4.443-1.752-6.043-1.152-4.153-4.488-7.611-10.085-7.611h-37.317c-4.835 0-7.973 2.595-9.485 5.977a11.177 11.177 0 0 0-1.433 4.951c-.817 13.949-.914 16.98-.914 30.95 0 2.874.939 5.129 2.387 6.829 1.152 2.431 3.264 4.487 6.546 5.524zm13.4-32.383h16.605c-.219 8.948-.609 6.963-1.133 15.904-9.104.33-7.068-.573-15.914-2.706.031-8.044.178-5.164.442-13.198zm57.595 37.841c15.071 4.763 19.94 6.616 35.673 4.94 2.609-.284 4.732-1.284 6.367-2.722 4.21-1.163 7.855-4.488 8.196-10.023.909-14.554 1.752-18.185 1.823-32.769.01-2.452-.676-4.448-1.758-6.043-1.147-4.159-4.483-7.616-10.079-7.616h-37.318c-4.839 0-7.973 2.595-9.485 5.977-.793 1.396-1.326 3.026-1.438 4.951-.812 13.949-.909 16.98-.909 30.95 0 2.874.935 5.128 2.387 6.829 1.153 2.444 3.265 4.49 6.541 5.526zm13.411-32.382h16.604c-.219 8.953-.609 6.962-1.132 15.904-9.105.33-7.069-.573-15.915-2.706.026-8.044.173-5.159.443-13.198zm70.507 43.696H380.34c-4.834 0-7.967 2.595-9.48 5.977-.792 1.392-1.33 3.032-1.437 4.946-.817 13.954-.909 16.986-.909 30.95 0 2.879.935 5.134 2.387 6.835 1.152 2.433 3.271 4.489 6.54 5.52 15.071 4.764 19.941 6.622 35.673 4.941 2.61-.279 4.728-1.285 6.368-2.717 4.204-1.168 7.851-4.489 8.196-10.029.908-14.554 1.752-18.185 1.817-32.768.011-2.448-.67-4.443-1.752-6.043-1.148-4.159-4.49-7.612-10.08-7.612zm-11.349 37.745c-9.105.335-7.063-.569-15.909-2.702.025-8.043.178-5.159.441-13.197h16.6c-.218 8.947-.605 6.962-1.132 15.899zm-1.569-49.059c15.071 4.763 19.941 6.616 35.673 4.94 2.61-.284 4.728-1.284 6.367-2.722 4.205-1.163 7.852-4.488 8.196-10.023.909-14.554 1.752-78.26 1.818-92.851.01-2.45-.671-4.446-1.752-6.043-1.147-4.154-4.489-7.612-10.08-7.612h-37.323c-4.834 0-7.967 2.595-9.48 5.975-.792 1.394-1.33 3.026-1.438 4.951-.817 13.949-.908 77.056-.908 91.031 0 2.874.934 5.128 2.387 6.829 1.152 2.443 3.269 4.489 6.54 5.525zm13.411-92.462h16.604c-.218 8.95-.609 67.042-1.138 75.984-9.104.33-7.062-.573-15.909-2.706.026-8.044.178-65.237.443-73.278zM346.663 331.96H150.958c-4.837 0-7.973 2.595-9.485 5.977-.79 1.392-1.326 3.032-1.435 4.946-.818 13.954-.909 11.521-.909 25.491 0 2.874.935 5.134 2.387 6.835 1.152 2.433 3.27 4.484 6.54 5.52 15.069 4.764 178.326 6.622 194.058 4.941 2.61-.279 4.732-1.285 6.368-2.722 4.209-1.163 7.855-4.484 8.195-10.024.909-14.553 1.752-12.72 1.823-27.309.01-2.448-.676-4.443-1.757-6.043-1.154-4.159-4.485-7.612-10.08-7.612zm-11.344 32.286c-9.105.335-165.456-.574-174.299-2.702.025-8.048.175.3.442-7.738h174.989c-.218 8.947-.61 1.503-1.132 10.44z"/></svg>