<svg xmlns="http://www.w3.org/2000/svg" width="481.193" height="481.193"><path d="M354.253 184.193c.172-6.505.34-13.01.462-19.515.005-.218-.046-.401-.051-.609 9.323-11.585 15.36-26.263 18.134-40.367 5.361-27.175 1.208-57.805-17.972-78.851-24.019-26.373-62.189-18.786-90.688-5.319-.478.224-.944.49-1.411.719C220.916-29.604 124.823-.985 91.242 68.434c-.838.145-1.693.343-2.59.675-17.976 6.647-33.194 16.254-40.776 34.444-6.177 14.83.629 31.179 10.042 42.713 10.997 13.472 25.827 19.7 41.401 20.71 4.278 90.446-1.711 180.804-8.424 270.999a14.056 14.056 0 0 0 .155 3.377c-.041 4.144 1.864 8.287 6.548 11.014 72.109 42.006 167.314 35.506 239.594-2.706 2.204-1.163 3.753-2.656 4.85-4.307 5.697-.99 10.496-5.229 9.968-12.786-.894-12.878-1.427-25.761-1.817-38.639 111.439 10.086 115.121-232.583 4.06-209.735zm-30.721 242.093c-61.419 32.469-142.479 39.151-205.204 6.459.412-5.565.808-11.141 1.211-16.717 67.413 25.116 140.081 17.626 203.79-14.538.299 8.13.716 16.255 1.218 24.38-.34.152-.675.234-1.015.416zm-.92-55.106c-61.433 34.764-134.975 45.234-201.1 16.737 5.078-74.596 8.48-149.293 4.746-224.056 7.02-2.006 13.759-4.946 20.062-8.48 15.671 14.683 34.896 25.558 57.041 25.116 18.771-.376 32.339-11.705 41.193-26.469 21.891 20.784 50.079 38.433 80.486 30.237.746-.203 1.447-.473 2.173-.701-1.626 62.545-5.317 125.076-4.601 187.616zm24.629-257.788c-1.595 10.89-4.575 19.656-9.893 28.5-4.509 7.492-11.196 13.469-18.179 15.876-24.669 8.496-52.979-18.809-69.894-37.831-8.683-9.765-21.528-1.495-22.635 8.732-12.007 37.112-44.095 24.57-65.321 3.506-4.083-6.553-13.937-10.494-21.823-4.113-16.412 13.269-41.261 17.902-58.412 3.196-17.669-15.152-2.526-29.665 14.754-36.056.869-.322 1.633-.727 2.376-1.153 5.226 1.742 10.986.315 13.83-6.418C133.986 35.696 215.206-8.29 244.259 62.756c4.331 10.6 17.346 11.022 23.643 5.375 12.492-7.007 26.051-13.208 40.497-14.102 9.663-.597 18.52 2.08 24.304 7.041 13.746 11.784 17.158 34.497 14.538 52.322zm2.442 253.197c-.411-51.409 1.995-102.818 3.732-154.233 78.491-22.848 72.397 164.186-3.732 154.233z"/><path d="M151.769 213.384v131.233c0 17.453 27.061 17.453 27.061 0V213.384c0-17.45-27.061-17.45-27.061 0zm59.526 5.408v131.233c0 17.452 27.061 17.452 27.061 0V218.792c0-17.445-27.061-17.445-27.061 0zm54.124 0v131.233c0 17.452 27.061 17.452 27.061 0V218.792c0-17.445-27.061-17.445-27.061 0z"/></svg>