<svg xmlns="http://www.w3.org/2000/svg" width="478.783" height="478.783"><path d="M476.183 68.965c.574-6.655-3.382-13.611-11.979-13.317-150.278 5.175-302.419-19.535-452.252-5.21-9.659.926-13.469 10.499-11.41 17.544a6358.714 6358.714 0 0 1 12.449 273.192c.025 1.193.229 2.27.51 3.285.493 5.819 4.461 11.294 11.997 11.299 53.844.061 107.684.898 161.518 1.838v49.227c0 .37.076.686.104 1.041h-17.301c-16.13 0-16.13 25.009 0 25.009h171.94c16.128 0 16.128-25.009 0-25.009H330.42c-1.255-15.996-1.59-32.012-1.656-48.049 45.139.503 90.281.686 135.436.112 1.254-.016 2.376-.224 3.432-.519 5.77-.538 11.151-4.504 11.151-11.983 0-91.708-.086-183.417-2.081-275.107-.016-1.215-.224-2.312-.519-3.353zm-264.26 338.904c.025-.355.102-.671.102-1.041v-48.795c30.577.538 61.157 1.031 91.731 1.447.066 16.153.396 32.276 1.66 48.384h-93.493v.005zM55.328 314.368a5964.996 5964.996 0 0 0-9.432-222.436c113.351-9.771 278.796 8.658 392.451 5.73 1.392 73.433 1.539 146.878 1.549 220.325-111.354 1.236-273.218-3.228-384.568-3.619z"/><path d="M425.926 129.913c0-4.529-2.046-8.355-5.646-10.613-2.306-3.115-5.794-4.877-9.882-4.986-100.306-2.656-203.048-7.904-305.369-15.595-4.717-.337-8.465 1.463-10.748 4.987-2.305 3.578-2.658 8.529-.937 12.771.084 1.94.582 3.812 1.498 5.581 27.563 53.349 72.59 82.321 145.995 93.927l11.738 1.833c58.939 9.115 114.62 17.72 147.708 73.806.584 2.554 1.909 4.763 3.869 6.424 2.301 3.047 5.606 4.728 9.339 4.728 4.666 0 9.308-2.641 11.801-6.719 2.199-3.601 2.428-7.87.63-11.806V129.913h.004zm-25.999 10.077v108.268c-26.192-27.134-61.85-43.566-111.548-51.521l-11.354-1.795c-61.25-9.617-114.376-17.966-149.341-68.626 91.632 6.555 183.181 11.153 272.243 13.674z"/></svg>