<svg xmlns="http://www.w3.org/2000/svg" width="477.189" height="477.189"><path d="M477.02 36.097a14.1 14.1 0 0 0-.441-3.271c.086-6.568-4.093-13.197-12.558-13.197h-32.932c-.635 0-1.203.104-1.787.178-3.595-.693-7.5.186-10.867 3.628-7.586 7.749-14.04 16.517-19.859 25.657H381.55c-4.708-6.282-8.79-13.041-12.832-19.763-1.188-5.228-5.216-9.704-12.157-9.704H141.63c-.711 0-1.346.109-1.996.198-3.969-.569-8.138.412-10.659 3.608-6.391 8.112-11.7 16.433-15.803 25.656h-22.35c-3.405-7.19-6.729-14.424-10.768-21.294-.348-.587-.749-1.059-1.14-1.564-1.544-4.623-5.479-8.34-11.829-8.34-14.731 0-38.057-4.862-51.752-.5C-9.445 25.276 3.054 61.507 3.872 79.801c1.242 27.83.229 55.937.378 83.797.343 63.375.987 126.756 1.815 190.125.373 28.752.706 57.493 1.236 86.229.074 4.094 1.696 7.171 4.083 9.263.884 5.637 5.007 10.669 12.385 10.669 12.741-.005 25.481-.066 38.131-1.731a19.81 19.81 0 0 0 2.871-.604c5.403.229 10.956-2.407 13.129-8.938 2.569-7.713 4.867-15.447 6.203-23.389h25.215c2.211 5.199 3.587 10.639 3.712 16.468.048 2.128.516 3.981 1.28 5.565 1.566 4.712 5.477 8.688 11.72 9.166 62.888 4.844 157.087 5.194 220.125 5.199 1.238 0 2.351-.178 3.407-.441 5.327.193 10.689-2.493 12.599-9.104 2.432-8.435 5.108-16.783 7.846-25.121h18.529c3.402 6.489 6.805 12.989 9.217 19.921.324.919.735 1.787 1.208 2.61 1.727 4.392 5.474 8.063 11.324 8.663 15.568 1.604 31.163 1.731 46.798 1.731 1.27 0 2.407-.188 3.484-.462 6.621.162 13.232-3.997 12.984-12.538-3.036-104.029 4.875-306.744 3.469-410.782zm-29.69 397.705c-9.095-.082-18.185-.249-27.254-.854-3.666-8.739-8.146-17.077-12.431-25.553-2.387-4.728-7.892-6.896-12.949-6.266-.573-.066-1.122-.173-1.741-.173h-32.931c-7.521 0-11.64 5.235-12.411 11.004-.041.097-.092.173-.127.274-2.59 7.77-5.083 15.559-7.484 23.384-56.99-.03-145.139-.497-202-4.372-1.543-8.982-4.768-17.56-9.407-25.578-2.917-5.037-7.523-6.692-11.954-6.164a14.204 14.204 0 0 0-2.742-.274H72.3c-7.597 0-11.71 5.342-12.426 11.177-.312 1.097-.541 2.254-.574 3.555-.15 6.479-1.709 12.72-3.608 18.875-7.478.7-14.985.944-22.5 1.021-1.709-94.445-3.301-287.686-3.359-382.151 0-2.61-.665-4.789-1.731-6.583v-1.216h31.143c4.456 8.059 8.148 16.508 12.235 24.763 2.148 4.341 6.962 6.452 11.646 6.307.442.04.848.129 1.31.129h36.399c4.634 0 7.942-2.016 10.017-4.893 1.892-1.647 3.374-3.841 4.253-6.38 2.242-6.469 5.537-12.568 9.48-18.189h203.637c5.099 8.257 10.445 16.27 16.483 23.925 1.366 1.736 3.25 2.765 5.291 3.318 1.925 1.366 4.362 2.219 7.363 2.219h29.468c6.916 0 10.928-4.436 12.141-9.635 4.316-7.015 8.973-13.685 14.401-19.827h17.692c.798 96.473-5.728 291.665-3.731 388.157z"/><path d="M117.362 104.563H72.295c-9.567 0-13.65 8.46-12.302 15.729-.411 1.274-.698 2.644-.698 4.207v23.529c-3.488 7.7.229 18.938 11.268 18.938 15.049-.005 30.097-.01 45.067-1.732.907-.104 1.79-.274 2.648-.497 6.177-.381 12.083-4.515 12.083-12.502v-29.473c0-1.369-.224-2.585-.546-3.728.689-6.952-3.429-14.471-12.453-14.471zm-12.999 35.63c-6.348.406-12.703.602-19.068.681v-10.311h19.068v9.63zm12.999 68.368H72.295c-9.567 0-13.65 8.46-12.302 15.729-.411 1.274-.698 2.643-.698 4.207v23.529c-3.488 7.698.229 18.936 11.268 18.936 15.049-.005 30.097-.011 45.067-1.731a18.79 18.79 0 0 0 2.648-.498c6.177-.381 12.083-4.515 12.083-12.502v-29.47c0-1.369-.224-2.585-.546-3.728.689-6.954-3.429-14.472-12.453-14.472zm-12.999 35.629c-6.348.406-12.703.6-19.068.681V234.56h19.068v9.63zm12.999 68.365H72.295c-9.567 0-13.65 8.46-12.302 15.731-.411 1.274-.698 2.641-.698 4.204v23.532c-3.488 7.697.229 18.936 11.268 18.936 15.049-.006 30.097-.011 45.067-1.732.907-.102 1.79-.273 2.648-.497 6.177-.381 12.083-4.515 12.083-12.502v-29.473c0-1.366-.224-2.585-.546-3.728.689-6.95-3.429-14.471-12.453-14.471zm-12.999 35.632c-6.348.406-12.703.6-19.068.681v-10.313h19.068v9.632zm293.791-243.624h-45.066c-9.567 0-13.65 8.46-12.305 15.729-.411 1.274-.695 2.644-.695 4.207v23.529c-3.488 7.7.229 18.938 11.268 18.938 15.047-.005 30.098-.01 45.067-1.732a19.311 19.311 0 0 0 2.646-.497c6.18-.381 12.086-4.515 12.086-12.502v-29.473c0-1.369-.224-2.585-.549-3.728.69-6.952-3.429-14.471-12.452-14.471zm-12.999 35.63c-6.348.406-12.705.602-19.068.681v-10.311h19.068v9.63zm12.999 68.368h-45.066c-9.567 0-13.65 8.46-12.305 15.729-.411 1.274-.695 2.643-.695 4.207v23.529c-3.488 7.698.229 18.936 11.268 18.936 15.047-.005 30.098-.011 45.067-1.731a18.87 18.87 0 0 0 2.646-.498c6.18-.381 12.086-4.515 12.086-12.502v-29.47c0-1.369-.224-2.585-.549-3.728.69-6.954-3.429-14.472-12.452-14.472zm-12.999 35.629c-6.348.406-12.705.6-19.068.681V234.56h19.068v9.63zm12.999 68.365h-45.066c-9.567 0-13.65 8.46-12.305 15.731-.411 1.274-.695 2.641-.695 4.204v23.532c-3.488 7.697.229 18.936 11.268 18.936 15.047-.006 30.098-.011 45.067-1.732a18.868 18.868 0 0 0 2.646-.497c6.18-.381 12.086-4.515 12.086-12.502v-29.473c0-1.366-.224-2.585-.549-3.728.69-6.95-3.429-14.471-12.452-14.471zm-12.999 35.632c-6.348.406-12.705.6-19.068.681v-10.313h19.068v9.632z"/></svg>