<svg xmlns="http://www.w3.org/2000/svg" width="503.097" height="503.097"><path d="M412.438 189.759c-1.214-.048-2.28.125-3.275.396-45.108-4.562-90.795-6.305-136.547-6.355 13.543-17.98 35.576-20.367 57.574-28.038 25.11-8.751 35.683-28.822 32.834-54.821-1.803-16.479-27.822-16.656-26 0 3.129 28.541-15.437 30.419-38.566 36.975-24.166 6.848-44.346 19.847-54.556 43.564a14.549 14.549 0 0 0-.805 2.534c-49.681.68-99.317 3.062-148.279 5.745-.526.031-.998.14-1.483.229a11.082 11.082 0 0 0-2.681-.229c-79.313 3.209-108.552 96.959-79.892 164.004 13.192 30.869 41.642 55.7 75.423 59.991 51.303 6.515 92.018-26.278 114.798-69.477 33.814 2.076 67.646.959 101.501.716 22.846 42.848 63.403 75.245 114.427 68.761 33.784-4.291 62.231-29.122 75.424-59.991 28.659-67.045-.575-160.795-79.897-164.004zm60.548 156.442c-11.501 23.191-32.103 44.849-59.438 47.145-44.488 3.737-76.286-25.07-95.227-63.028-.914-1.833-2.123-3.087-3.464-3.94-1.625-1.381-3.778-2.27-6.525-2.265-37.871.132-75.71 1.741-113.523-1.041-5.284-.392-8.439 2.625-9.546 6.464-.16.265-.343.488-.487.782-18.944 37.958-50.742 66.766-95.232 63.028-27.33-2.291-47.931-23.948-59.433-47.145-25.989-52.399-2.019-133.078 60.547-135.612.513-.021.973-.124 1.445-.203.843.163 1.731.257 2.719.203 109.042-5.979 221.443-10.583 330.157 2.084 1.031.12 1.95.069 2.818-.061 50.964 11.537 68.924 85.73 45.189 133.589z"/><path d="M130.396 277.812h-18.492V264.71c0-20.5-31.938-20.505-31.938 0v13.102H64.705c-4.71 0-8.887 1.843-11.756 5.174-2.491 2.899-3.859 6.739-3.859 10.796 0 7.938 5.36 15.971 15.615 15.971h15.262v16.336c0 10.252 8.033 15.614 15.968 15.614 7.937 0 15.97-5.362 15.97-15.614v-16.336h18.492c10.252 0 15.615-8.033 15.615-15.971-.001-7.937-5.364-15.97-15.616-15.97zm277.816-34.458c-4.712 0-8.886 1.841-11.755 5.172-2.494 2.897-3.859 6.729-3.859 10.796 0 7.937 5.357 15.971 15.614 15.971 4.713 0 8.887-1.844 11.756-5.175 2.493-2.899 3.859-6.729 3.859-10.796 0-7.934-5.362-15.968-15.615-15.968zm-37.689 45.228c-4.713 0-8.887 1.843-11.75 5.174-2.494 2.895-3.865 6.729-3.865 10.791 0 7.937 5.363 15.97 15.615 15.97 4.712 0 8.887-1.843 11.75-5.179 2.494-2.895 3.865-6.724 3.865-10.791.006-7.932-5.363-15.965-15.615-15.965zm69.996-4.307c-4.713 0-8.887 1.844-11.751 5.175-2.493 2.895-3.864 6.728-3.864 10.79 0 7.938 5.362 15.971 15.615 15.971 4.712 0 8.886-1.844 11.75-5.18 2.493-2.895 3.864-6.723 3.864-10.791 0-7.931-5.362-15.965-15.614-15.965zm-33.383 35.537c-4.713 0-8.887 1.843-11.751 5.174-2.493 2.895-3.864 6.729-3.864 10.791 0 7.937 5.357 15.97 15.615 15.97 4.712 0 8.887-1.843 11.75-5.179 2.493-2.895 3.864-6.724 3.864-10.791 0-7.932-5.362-15.965-15.614-15.965zM232.697 259.51h-24.768c-10.248 0-15.615 8.034-15.615 15.966 0 7.937 5.362 15.97 15.615 15.97h24.768c10.248 0 15.615-8.033 15.615-15.97 0-7.932-5.368-15.966-15.615-15.966zm73.219 0h-26.923c-10.253 0-15.615 8.034-15.615 15.966 0 7.937 5.362 15.97 15.615 15.97h26.923c10.253 0 15.615-8.033 15.615-15.97 0-7.932-5.362-15.966-15.615-15.966z"/></svg>